<svg xmlns="http://www.w3.org/2000/svg" version="1.0" width="30px" height="30px" viewBox="0 0 512.000000 512.000000" preserveAspectRatio="xMidYMid meet">

<g transform="translate(0.000000,512.000000) scale(0.100000,-0.100000)" fill="#61dafb" stroke="none">
<path d="M2509 4417 c-40 -30 -345 -603 -460 -862 -77 -175 -135 -348 -150 -446 -26 -180 44 -386 181 -525 136 -139 287 -204 478 -204 117 0 209 21 300 68 291 151 429 468 338 777 -45 149 -111 307 -241 570 -130 264 -300 573 -337 612 -24 26 -82 31 -109 10z m130 -379 c165 -302 320 -636 382 -826 68 -208 26 -387 -125 -530 -187 -177 -485 -177 -672 0 -106 100 -156 213 -156 353 -1 88 27 188 103 372 80 191 371 763 389 763 3 0 39 -60 79 -132z"/>
<path d="M455 2145 c-25 -24 -32 -65 -19 -100 9 -22 57 -45 97 -45 53 0 117 -23 198 -72 109 -65 152 -80 257 -86 120 -6 191 9 289 64 127 72 165 87 225 92 94 7 138 -5 249 -68 136 -77 199 -94 326 -87 115 6 159 20 268 86 91 56 137 71 216 71 74 0 130 -18 213 -69 109 -67 158 -83 273 -89 125 -6 199 14 323 88 104 61 144 73 235 68 74 -4 102 -15 238 -92 98 -55 169 -70 289 -64 106 6 163 26 263 89 71 45 139 69 192 69 40 0 88 23 97 45 13 35 6 76 -19 100 -51 52 -194 26 -347 -61 -118 -68 -152 -77 -249 -72 -61 4 -86 10 -132 36 -31 18 -81 45 -110 62 -82 46 -166 63 -272 57 -107 -6 -149 -20 -278 -94 -90 -51 -105 -57 -172 -61 -96 -6 -154 9 -240 63 -127 79 -163 89 -305 89 -142 0 -178 -10 -305 -89 -86 -54 -144 -69 -240 -63 -67 4 -82 10 -172 61 -129 74 -171 88 -278 94 -105 6 -190 -11 -269 -56 -174 -97 -167 -94 -245 -99 -97 -5 -131 4 -249 72 -153 87 -296 113 -347 61z"/>
<path d="M490 1593 c-34 -13 -60 -47 -60 -79 0 -56 33 -80 123 -92 66 -9 91 -18 161 -60 108 -64 177 -90 268 -97 97 -9 199 13 286 61 175 97 176 97 267 97 91 0 103 -4 266 -96 168 -95 362 -85 543 27 90 55 135 70 216 70 81 0 126 -15 216 -70 181 -112 375 -122 543 -27 163 92 175 96 266 96 91 0 92 0 267 -97 87 -48 189 -70 286 -61 91 7 160 33 268 97 70 42 95 51 161 60 62 8 83 15 100 35 32 34 30 83 -3 114 -23 21 -34 24 -95 22 -85 -3 -156 -28 -256 -88 -159 -97 -263 -97 -431 -1 -53 30 -110 60 -126 66 -58 22 -170 31 -246 20 -74 -10 -96 -19 -293 -123 -51 -27 -69 -31 -140 -31 -93 -1 -121 8 -225 72 -100 62 -177 84 -287 85 -117 1 -185 -19 -302 -90 -154 -92 -270 -95 -408 -11 -151 91 -257 118 -392 98 -89 -12 -107 -19 -225 -86 -168 -96 -272 -96 -431 1 -43 26 -101 55 -130 65 -56 19 -162 32 -187 23z"/>
<path d="M455 995 c-25 -24 -32 -65 -19 -100 9 -22 57 -45 97 -45 53 0 121 -24 192 -69 119 -76 153 -85 300 -86 l130 0 75 37 c41 21 105 54 142 74 55 30 80 38 140 42 93 5 133 -6 238 -68 125 -74 198 -94 323 -87 118 6 162 20 272 86 91 56 137 71 215 71 78 0 124 -15 215 -71 112 -68 153 -81 275 -86 130 -6 186 10 333 93 l102 59 96 0 c92 0 99 -2 165 -38 38 -20 103 -54 144 -75 l75 -37 130 0 c147 1 181 10 300 86 71 45 139 69 192 69 40 0 88 23 97 45 13 35 6 76 -19 100 -51 52 -194 26 -347 -61 -118 -68 -152 -77 -249 -72 -61 4 -86 10 -132 36 -31 18 -81 45 -110 62 -82 46 -166 63 -272 57 -108 -6 -149 -20 -279 -94 -94 -54 -103 -57 -181 -61 -99 -5 -133 4 -240 68 -116 70 -170 85 -295 85 -125 0 -179 -15 -295 -85 -107 -64 -141 -73 -240 -68 -78 4 -87 7 -181 61 -130 74 -171 88 -279 94 -119 7 -193 -12 -316 -83 -113 -64 -143 -74 -224 -74 -81 0 -111 10 -224 74 -152 87 -295 112 -346 61z"/>
</g>
</svg>