<svg xmlns="http://www.w3.org/2000/svg" version="1.0" width="25px" height="25px" viewBox="0 0 512.000000 512.000000" preserveAspectRatio="xMidYMid meet">

<g transform="translate(0.000000,512.000000) scale(0.100000,-0.100000)" fill="#61dafb" stroke="none">
<path d="M2745 4334 c-107 -27 -203 -81 -286 -164 -120 -119 -186 -263 -191 -417 -3 -68 -1 -76 21 -94 13 -10 38 -19 55 -19 51 0 71 31 84 130 33 246 229 420 473 420 139 0 244 -46 342 -149 252 -263 126 -693 -230 -786 -49 -13 -255 -15 -1511 -15 l-1453 0 -24 -25 c-33 -32 -33 -78 0 -110 l24 -25 1458 0 c1202 0 1469 3 1523 14 235 50 425 232 486 467 25 93 22 244 -6 334 -62 199 -210 355 -402 422 -92 33 -268 41 -363 17z"/>
<path d="M4330 3774 c-30 -8 -92 -32 -138 -55 -196 -96 -342 -324 -342 -534 0 -51 4 -65 23 -83 23 -22 60 -28 92 -16 23 9 45 57 45 101 1 188 168 388 361 432 212 49 441 -57 540 -250 25 -51 49 -152 49 -214 0 -163 -104 -336 -248 -413 -124 -66 18 -62 -2090 -62 l-1913 0 -24 -25 c-33 -32 -33 -78 0 -110 l24 -25 1918 0 c2138 0 1989 -5 2143 71 273 135 410 459 320 754 -63 204 -245 377 -455 430 -74 19 -232 19 -305 -1z"/>
<path d="M355 2015 c-16 -15 -25 -36 -25 -55 0 -19 9 -40 25 -55 l24 -25 1533 0 c1327 0 1542 -2 1591 -15 226 -59 383 -272 364 -495 -16 -186 -134 -345 -304 -410 -70 -27 -198 -37 -272 -21 -115 24 -236 109 -299 209 -40 61 -72 160 -72 217 0 51 -20 99 -45 109 -34 13 -72 6 -93 -17 -44 -47 -25 -190 44 -335 104 -216 322 -352 565 -352 168 0 312 56 431 168 127 120 194 262 205 430 15 249 -125 491 -347 601 -153 75 -47 71 -1763 71 l-1538 0 -24 -25z"/>
</g>
</svg>